<mxfile host="app.diagrams.net" agent="Mozilla/5.0 (Windows NT 10.0; Win64; x64) AppleWebKit/537.36 (KHTML, like Gecko) Chrome/131.0.0.0 Safari/537.36" version="26.1.0">
  <diagram name="第 1 页" id="fgVyCdpo1RpyXijZnxLB">
    <mxGraphModel dx="1235" dy="624" grid="1" gridSize="10" guides="1" tooltips="1" connect="1" arrows="1" fold="1" page="1" pageScale="1" pageWidth="2339" pageHeight="3300" math="0" shadow="0">
      <root>
        <mxCell id="0" />
        <mxCell id="1" parent="0" />
        <mxCell id="O_y6O0_J4jZQ_gd5SpbO-1" value="" style="rounded=0;whiteSpace=wrap;html=1;shadow=1;" vertex="1" parent="1">
          <mxGeometry x="110" y="60" width="1050" height="480" as="geometry" />
        </mxCell>
        <mxCell id="O_y6O0_J4jZQ_gd5SpbO-2" value="项目管理平台" style="text;html=1;align=center;verticalAlign=middle;whiteSpace=wrap;rounded=0;" vertex="1" parent="1">
          <mxGeometry x="630" y="70" width="100" height="30" as="geometry" />
        </mxCell>
        <mxCell id="O_y6O0_J4jZQ_gd5SpbO-6" value="" style="rounded=0;whiteSpace=wrap;html=1;" vertex="1" parent="1">
          <mxGeometry x="135" y="120" width="465" height="100" as="geometry" />
        </mxCell>
        <mxCell id="O_y6O0_J4jZQ_gd5SpbO-3" value="App配置" style="rounded=0;whiteSpace=wrap;html=1;" vertex="1" parent="1">
          <mxGeometry x="240" y="150" width="90" height="40" as="geometry" />
        </mxCell>
        <mxCell id="O_y6O0_J4jZQ_gd5SpbO-4" value="语音包" style="rounded=0;whiteSpace=wrap;html=1;" vertex="1" parent="1">
          <mxGeometry x="360" y="150" width="90" height="40" as="geometry" />
        </mxCell>
        <mxCell id="O_y6O0_J4jZQ_gd5SpbO-5" value="异常码" style="rounded=0;whiteSpace=wrap;html=1;" vertex="1" parent="1">
          <mxGeometry x="480" y="150" width="90" height="40" as="geometry" />
        </mxCell>
        <mxCell id="O_y6O0_J4jZQ_gd5SpbO-7" value="打包管理" style="text;html=1;align=center;verticalAlign=middle;whiteSpace=wrap;rounded=0;" vertex="1" parent="1">
          <mxGeometry x="160" y="155" width="60" height="30" as="geometry" />
        </mxCell>
        <mxCell id="O_y6O0_J4jZQ_gd5SpbO-8" value="" style="rounded=0;whiteSpace=wrap;html=1;" vertex="1" parent="1">
          <mxGeometry x="135" y="240" width="465" height="100" as="geometry" />
        </mxCell>
        <mxCell id="O_y6O0_J4jZQ_gd5SpbO-9" value="文案管理" style="rounded=0;whiteSpace=wrap;html=1;" vertex="1" parent="1">
          <mxGeometry x="240" y="270" width="90" height="40" as="geometry" />
        </mxCell>
        <mxCell id="O_y6O0_J4jZQ_gd5SpbO-10" value="语音管理" style="rounded=0;whiteSpace=wrap;html=1;" vertex="1" parent="1">
          <mxGeometry x="360" y="270" width="90" height="40" as="geometry" />
        </mxCell>
        <mxCell id="O_y6O0_J4jZQ_gd5SpbO-11" value="异常码管理" style="rounded=0;whiteSpace=wrap;html=1;" vertex="1" parent="1">
          <mxGeometry x="480" y="270" width="90" height="40" as="geometry" />
        </mxCell>
        <mxCell id="O_y6O0_J4jZQ_gd5SpbO-12" value="资源管理" style="text;html=1;align=center;verticalAlign=middle;whiteSpace=wrap;rounded=0;" vertex="1" parent="1">
          <mxGeometry x="160" y="275" width="60" height="30" as="geometry" />
        </mxCell>
        <mxCell id="O_y6O0_J4jZQ_gd5SpbO-13" value="" style="rounded=0;whiteSpace=wrap;html=1;dashed=1;" vertex="1" parent="1">
          <mxGeometry x="618" y="120" width="160" height="220" as="geometry" />
        </mxCell>
        <mxCell id="O_y6O0_J4jZQ_gd5SpbO-14" value="机器人协议" style="rounded=0;whiteSpace=wrap;html=1;" vertex="1" parent="1">
          <mxGeometry x="648" y="170" width="90" height="40" as="geometry" />
        </mxCell>
        <mxCell id="O_y6O0_J4jZQ_gd5SpbO-15" value="App协议" style="rounded=0;whiteSpace=wrap;html=1;" vertex="1" parent="1">
          <mxGeometry x="648" y="225" width="90" height="40" as="geometry" />
        </mxCell>
        <mxCell id="O_y6O0_J4jZQ_gd5SpbO-16" value="基站协议" style="rounded=0;whiteSpace=wrap;html=1;" vertex="1" parent="1">
          <mxGeometry x="648" y="280" width="90" height="40" as="geometry" />
        </mxCell>
        <mxCell id="O_y6O0_J4jZQ_gd5SpbO-17" value="埋点协议管理" style="text;html=1;align=center;verticalAlign=middle;whiteSpace=wrap;rounded=0;" vertex="1" parent="1">
          <mxGeometry x="648" y="130" width="90" height="30" as="geometry" />
        </mxCell>
        <mxCell id="O_y6O0_J4jZQ_gd5SpbO-18" value="" style="rounded=0;whiteSpace=wrap;html=1;dashed=1;" vertex="1" parent="1">
          <mxGeometry x="794" y="120" width="160" height="220" as="geometry" />
        </mxCell>
        <mxCell id="O_y6O0_J4jZQ_gd5SpbO-19" value="动态配置" style="rounded=0;whiteSpace=wrap;html=1;" vertex="1" parent="1">
          <mxGeometry x="824" y="170" width="90" height="40" as="geometry" />
        </mxCell>
        <mxCell id="O_y6O0_J4jZQ_gd5SpbO-20" value="NPI维修工具" style="rounded=0;whiteSpace=wrap;html=1;" vertex="1" parent="1">
          <mxGeometry x="824" y="225" width="90" height="40" as="geometry" />
        </mxCell>
        <mxCell id="O_y6O0_J4jZQ_gd5SpbO-21" value="Narsh管理" style="rounded=0;whiteSpace=wrap;html=1;" vertex="1" parent="1">
          <mxGeometry x="824" y="280" width="90" height="40" as="geometry" />
        </mxCell>
        <mxCell id="O_y6O0_J4jZQ_gd5SpbO-22" value="开发者模式管理" style="text;html=1;align=center;verticalAlign=middle;whiteSpace=wrap;rounded=0;" vertex="1" parent="1">
          <mxGeometry x="824" y="130" width="90" height="30" as="geometry" />
        </mxCell>
        <mxCell id="O_y6O0_J4jZQ_gd5SpbO-23" value="" style="rounded=0;whiteSpace=wrap;html=1;dashed=1;" vertex="1" parent="1">
          <mxGeometry x="971" y="120" width="160" height="220" as="geometry" />
        </mxCell>
        <mxCell id="O_y6O0_J4jZQ_gd5SpbO-24" value="远程配置" style="rounded=0;whiteSpace=wrap;html=1;" vertex="1" parent="1">
          <mxGeometry x="1001" y="170" width="90" height="40" as="geometry" />
        </mxCell>
        <mxCell id="O_y6O0_J4jZQ_gd5SpbO-25" value="本地配置" style="rounded=0;whiteSpace=wrap;html=1;" vertex="1" parent="1">
          <mxGeometry x="1001" y="225" width="90" height="40" as="geometry" />
        </mxCell>
        <mxCell id="O_y6O0_J4jZQ_gd5SpbO-27" value="多机配置管理" style="text;html=1;align=center;verticalAlign=middle;whiteSpace=wrap;rounded=0;" vertex="1" parent="1">
          <mxGeometry x="1001" y="130" width="90" height="30" as="geometry" />
        </mxCell>
        <mxCell id="O_y6O0_J4jZQ_gd5SpbO-28" value="" style="rounded=0;whiteSpace=wrap;html=1;" vertex="1" parent="1">
          <mxGeometry x="135" y="380" width="1005" height="60" as="geometry" />
        </mxCell>
        <mxCell id="O_y6O0_J4jZQ_gd5SpbO-29" value="系统管理" style="text;html=1;align=center;verticalAlign=middle;whiteSpace=wrap;rounded=0;" vertex="1" parent="1">
          <mxGeometry x="160" y="395" width="60" height="30" as="geometry" />
        </mxCell>
        <mxCell id="O_y6O0_J4jZQ_gd5SpbO-30" value="语音管理" style="rounded=0;whiteSpace=wrap;html=1;" vertex="1" parent="1">
          <mxGeometry x="240" y="390" width="90" height="40" as="geometry" />
        </mxCell>
        <mxCell id="O_y6O0_J4jZQ_gd5SpbO-31" value="产品管理" style="rounded=0;whiteSpace=wrap;html=1;" vertex="1" parent="1">
          <mxGeometry x="360" y="390" width="90" height="40" as="geometry" />
        </mxCell>
        <mxCell id="O_y6O0_J4jZQ_gd5SpbO-32" value="用户管理" style="rounded=0;whiteSpace=wrap;html=1;" vertex="1" parent="1">
          <mxGeometry x="480" y="390" width="90" height="40" as="geometry" />
        </mxCell>
        <mxCell id="O_y6O0_J4jZQ_gd5SpbO-33" value="字典存储" style="rounded=0;whiteSpace=wrap;html=1;" vertex="1" parent="1">
          <mxGeometry x="600" y="390" width="90" height="40" as="geometry" />
        </mxCell>
        <mxCell id="O_y6O0_J4jZQ_gd5SpbO-35" value="" style="rounded=0;whiteSpace=wrap;html=1;" vertex="1" parent="1">
          <mxGeometry x="135" y="460" width="1005" height="60" as="geometry" />
        </mxCell>
        <mxCell id="O_y6O0_J4jZQ_gd5SpbO-36" value="基础架构" style="text;html=1;align=center;verticalAlign=middle;whiteSpace=wrap;rounded=0;" vertex="1" parent="1">
          <mxGeometry x="160" y="475" width="60" height="30" as="geometry" />
        </mxCell>
        <mxCell id="O_y6O0_J4jZQ_gd5SpbO-37" value="登录系统" style="rounded=0;whiteSpace=wrap;html=1;" vertex="1" parent="1">
          <mxGeometry x="240" y="470" width="90" height="40" as="geometry" />
        </mxCell>
        <mxCell id="O_y6O0_J4jZQ_gd5SpbO-38" value="权限系统" style="rounded=0;whiteSpace=wrap;html=1;" vertex="1" parent="1">
          <mxGeometry x="360" y="470" width="90" height="40" as="geometry" />
        </mxCell>
        <mxCell id="O_y6O0_J4jZQ_gd5SpbO-39" value="任务队列" style="rounded=0;whiteSpace=wrap;html=1;" vertex="1" parent="1">
          <mxGeometry x="480" y="470" width="90" height="40" as="geometry" />
        </mxCell>
        <mxCell id="O_y6O0_J4jZQ_gd5SpbO-40" value="操作日志" style="rounded=0;whiteSpace=wrap;html=1;" vertex="1" parent="1">
          <mxGeometry x="600" y="470" width="90" height="40" as="geometry" />
        </mxCell>
        <mxCell id="O_y6O0_J4jZQ_gd5SpbO-41" value="通知中心" style="rounded=0;whiteSpace=wrap;html=1;" vertex="1" parent="1">
          <mxGeometry x="720" y="470" width="90" height="40" as="geometry" />
        </mxCell>
        <mxCell id="O_y6O0_J4jZQ_gd5SpbO-42" value="任务管理" style="rounded=0;whiteSpace=wrap;html=1;" vertex="1" parent="1">
          <mxGeometry x="720" y="390" width="90" height="40" as="geometry" />
        </mxCell>
        <mxCell id="O_y6O0_J4jZQ_gd5SpbO-43" value="指引文档" style="rounded=0;whiteSpace=wrap;html=1;" vertex="1" parent="1">
          <mxGeometry x="840" y="390" width="90" height="40" as="geometry" />
        </mxCell>
        <mxCell id="O_y6O0_J4jZQ_gd5SpbO-44" value="审计系统" style="rounded=0;whiteSpace=wrap;html=1;" vertex="1" parent="1">
          <mxGeometry x="840" y="470" width="90" height="40" as="geometry" />
        </mxCell>
      </root>
    </mxGraphModel>
  </diagram>
</mxfile>
